<?xml version="1.0" standalone="no"?><!DOCTYPE svg PUBLIC "-//W3C//DTD SVG 1.1//EN" "http://www.w3.org/Graphics/SVG/1.1/DTD/svg11.dtd"><svg t="1524062177114" class="icon" style="" viewBox="0 0 1024 1024" version="1.1" xmlns="http://www.w3.org/2000/svg" p-id="3582" xmlns:xlink="http://www.w3.org/1999/xlink" width="200" height="200"><defs><style type="text/css"></style></defs><path d="M830.72 957.376H193.216A126.912 126.912 0 0 1 66.56 830.72V193.216c0-69.76 56.832-126.656 126.656-126.656h637.568a126.72 126.72 0 0 1 126.592 126.656v637.504a126.912 126.912 0 0 1-126.656 126.656zM188.16 124.736a63.488 63.488 0 0 0-63.36 63.36v647.68c0 34.944 28.416 63.36 63.36 63.36h647.616a63.424 63.424 0 0 0 63.296-63.36V188.16a63.36 63.36 0 0 0-63.296-63.36H188.16v-0.064z" p-id="3583" fill="#1296db"></path><path d="M455.168 433.92L378.24 250.624c-6.592-16-9.92-21.12-12.48-23.872a29.824 29.824 0 0 0-23.808-10.304 28.992 28.992 0 0 0-24.128 11.456c-2.176 2.624-5.504 7.808-11.776 23.04v0.128L231.936 435.264a57.152 57.152 0 0 0-5.568 20.416c0 4.352 1.344 10.88 7.616 17.28l0.32 0.256a26.496 26.496 0 0 0 18.24 7.104 23.808 23.808 0 0 0 19.328-8.832c2.752-3.392 5.44-8.704 8.768-17.344l17.472-45.376h89.664l18.304 44.608c4.672 11.52 6.784 15.232 8.128 17.216l0.256 0.256a23.68 23.68 0 0 0 19.904 9.472 27.264 27.264 0 0 0 18.624-7.424l0.448-0.512A25.344 25.344 0 0 0 460.8 455.04a58.496 58.496 0 0 0-5.632-21.12zM369.344 361.728h-54.016l26.496-68.864 27.52 68.864zM768.64 359.744a73.344 73.344 0 0 0-21.312-18.112c15.616-13.056 23.744-30.72 23.744-52.16 0-27.392-11.648-48.128-34.432-61.44-12.992-7.808-30.912-11.584-54.976-11.584H611.136c-15.808 0-25.344 2.432-30.656 7.872-5.376 5.184-7.616 14.336-7.616 30.336v190.464c0 16.448 2.496 25.728 8.256 30.784 5.696 5.184 14.912 7.488 30.016 7.488h76.16c23.104 0 42.624-4.288 57.728-12.736 11.84-6.592 21.184-16.064 27.968-28.288l0.064-0.128c6.464-12.032 9.6-25.088 9.6-38.848 0-17.024-4.672-31.744-14.016-43.648z m-141.184 10.048h57.472c14.976 0 26.496 3.584 34.176 10.56l0.192 0.192c5.568 4.736 8.256 11.84 8.256 21.44a29.376 29.376 0 0 1-9.92 23.808l-0.064 0.128c-6.976 6.208-18.048 9.344-32.64 9.344h-57.472V369.792z m81.152-56.64l-0.064 0.128c-5.376 5.568-15.232 8.384-29.312 8.384h-51.84v-57.088h42.176c18.432 0 27.584 2.112 32 3.904l0.256 0.064c7.104 2.688 15.232 7.872 15.232 24.256a27.2 27.2 0 0 1-8.448 20.352zM446.72 700.544a24.832 24.832 0 0 0-17.024-6.784c-14.784 0-21.632 13.056-24.448 20.8v0.064c-10.624 30.464-29.12 44.544-58.368 44.544a59.712 59.712 0 0 1-42.24-15.424c-15.424-14.4-23.232-37.568-23.232-69.056 0-31.68 8-55.36 24-70.4a61.056 61.056 0 0 1 44.032-16.64c10.688 0 19.84 2.496 28.032 7.616l0.192 0.128a57.216 57.216 0 0 1 21.376 23.168c3.264 6.208 13.056 25.152 29.312 25.152a22.016 22.016 0 0 0 18.56-8.832 26.88 26.88 0 0 0 5.248-15.936c0-7.616-3.328-17.024-10.24-28.48a99.072 99.072 0 0 0-33.216-33.536 110.592 110.592 0 0 0-60.544-16.512c-35.2 0-64.512 12.544-86.912 37.312-22.656 24.32-34.112 56.512-34.112 95.616 0 42.048 12.352 76.224 36.864 101.696 20.096 20.8 48.96 31.36 85.824 31.36 32.96 0 60.032-11.776 80.32-34.944 15.936-18.176 24-36.096 24-53.632a23.168 23.168 0 0 0-7.424-17.28zM767.936 577.344a96.384 96.384 0 0 0-49.344-32 174.208 174.208 0 0 0-46.656-5.056h-59.584c-16.256 0-25.92 2.624-31.424 8.512-4.928 5.376-7.232 14.592-7.232 29.76v186.304c0 17.664 1.92 27.712 6.528 33.344 5.312 6.528 15.104 9.344 32.192 9.344h59.904c32.96 0 59.072-6.72 77.504-20.032 31.68-22.656 47.744-60.864 47.744-113.92-0.064-40.576-10.048-72.96-29.632-96.256z m-25.6 97.92c0 28.416-5.952 49.792-17.536 63.552l-0.128 0.128a46.016 46.016 0 0 1-21.952 15.936l-0.448 0.128c-7.744 2.944-19.264 4.352-34.368 4.352h-39.616V588.416h37.888c16.576 0 29.248 1.664 37.504 4.928l0.32 0.128a44.16 44.16 0 0 1 20.416 15.744l0.064 0.064c11.84 15.232 17.856 37.376 17.856 65.984z" p-id="3584" fill="#1296db"></path></svg>