<?xml version="1.0" standalone="no"?><!DOCTYPE svg PUBLIC "-//W3C//DTD SVG 1.1//EN" "http://www.w3.org/Graphics/SVG/1.1/DTD/svg11.dtd"><svg t="1524062165323" class="icon" style="" viewBox="0 0 1024 1024" version="1.1" xmlns="http://www.w3.org/2000/svg" p-id="3350" xmlns:xlink="http://www.w3.org/1999/xlink" width="200" height="200"><defs><style type="text/css"></style></defs><path d="M963.490909 642.327273L907.636364 577.163636l11.636363-139.636363 79.127273-79.127273-2.327273-4.654545-37.236363-55.854546h-16.290909l-37.236364-46.545454 11.636364-137.309091 79.127272-79.127273V16.290909l-875.054545 13.963636-65.163637 44.218182-32.581818 69.818182v90.763636l55.854546 79.127273 34.909091 27.927273-53.527273 55.854545-34.909091 69.818182v93.090909l55.854545 76.8 30.254546 25.6-55.854546 60.509091-32.581818 69.818182V884.363636l55.854546 79.127273 41.890909 34.909091 290.909091 11.636364 584.145454-6.981819-37.236363-34.90909-53.527273-67.49091 11.636364-137.30909 79.127272-79.127273-4.654545-6.981818h6.981818z" fill="#FFC56F" p-id="3351"></path><path d="M1024 707.490909v-67.490909c-55.854545-13.963636-97.745455-67.490909-97.745455-130.327273 0-62.836364 41.890909-114.036364 97.745455-130.327272v-67.49091c-55.854545-13.963636-97.745455-67.490909-97.745455-130.327272 0-62.836364 41.890909-114.036364 97.745455-130.327273V0H181.527273C81.454545 0 0 83.781818 0 186.181818c0 69.818182 37.236364 130.327273 90.763636 162.909091C37.236364 381.672727 0 442.181818 0 512s37.236364 130.327273 90.763636 162.909091C37.236364 707.490909 0 768 0 837.818182c0 102.4 81.454545 186.181818 181.527273 186.181818H1024v-58.181818c-55.854545-13.963636-97.745455-67.490909-97.745455-130.327273 0-60.509091 41.890909-114.036364 97.745455-128zM48.872727 186.181818c0-76.8 60.509091-137.309091 132.654546-137.309091h756.363636c-37.236364 34.909091-60.509091 83.781818-60.509091 137.309091 0 53.527273 23.272727 104.727273 60.509091 137.309091H181.527273C107.054545 325.818182 48.872727 262.981818 48.872727 186.181818z m0 325.818182c0-76.8 60.509091-137.309091 132.654546-137.309091h756.363636c-37.236364 34.909091-60.509091 83.781818-60.509091 137.309091 0 53.527273 23.272727 104.727273 60.509091 137.309091H181.527273c-74.472727 0-132.654545-60.509091-132.654546-137.309091z m828.509091 325.818182c0 53.527273 23.272727 104.727273 60.509091 137.309091H181.527273c-74.472727 0-132.654545-62.836364-132.654546-137.309091 0-76.8 60.509091-137.309091 132.654546-137.309091h756.363636c-37.236364 32.581818-60.509091 81.454545-60.509091 137.309091z" fill="#FE6576" p-id="3352"></path><path d="M197.818182 48.872727v528.290909c0 9.309091 9.309091 13.963636 16.290909 11.636364l48.872727-23.272727 48.872727 23.272727c6.981818 4.654545 16.290909-2.327273 16.29091-11.636364V48.872727H197.818182z" fill="#FC4248" p-id="3353"></path><path d="M225.745455 79.127273c-9.309091 0-13.963636 6.981818-13.963637 13.963636v90.763636c0 9.309091 6.981818 13.963636 13.963637 13.963637 9.309091 0 13.963636-6.981818 13.963636-13.963637V95.418182c2.327273-9.309091-4.654545-16.290909-13.963636-16.290909z" fill="#FFFFFF" p-id="3354"></path><path d="M225.745455 232.727273m-13.963637 0a13.963636 13.963636 0 1 0 27.927273 0 13.963636 13.963636 0 1 0-27.927273 0Z" fill="#FFFFFF" p-id="3355"></path></svg>