<?xml version="1.0" standalone="no"?><!DOCTYPE svg PUBLIC "-//W3C//DTD SVG 1.1//EN" "http://www.w3.org/Graphics/SVG/1.1/DTD/svg11.dtd"><svg t="1525235252178" class="icon" style="" viewBox="0 0 1024 1024" version="1.1" xmlns="http://www.w3.org/2000/svg" p-id="2386" data-spm-anchor-id="a313x.7781069.0.i9" xmlns:xlink="http://www.w3.org/1999/xlink" width="400" height="400"><defs><style type="text/css"></style></defs><path d="M529.8875 148.95833333c-121.89375 0-229.3875 77.34375-274.5 191.86875C160.26875 361.07708333 90.125 448.88333333 90.125 552.10208333c0 118.8 92.41875 215.60625 207.1125 215.60625a28.125 28.125 0 1 0 0-56.25C214.2125 711.45833333 146.375 640.41458333 146.375 552.10208333c0-81.39375 57.9375-149.11875 133.3125-158.34375a28.125 28.125 0 0 0 23.2875-19.0125C336.5 273.83333333 427.11875 205.20833333 529.8875 205.20833333c127.96875 0 233.71875 105.75 240.075 240.35625a28.125 28.125 0 0 0 20.8125 25.875c50.5125 13.44375 86.85 61.81875 86.85 118.125 0 67.6125-51.80625 121.89375-115.03125 121.89375a28.125 28.125 0 1 0 0 56.25c94.89375 0 171.28125-80.04375 171.28125-178.14375 0-74.41875-44.325-139.8375-109.2375-166.05C807.9875 268.77083333 682.15625 148.95833333 529.8875 148.95833333z m10.2375 489.76875V880.20833333a28.125 28.125 0 1 1-56.25 0v-241.48125l-64.4625 64.51875a28.125 28.125 0 0 1-39.825-39.825l112.5-112.5a28.125 28.125 0 0 1 39.825 0l112.5 112.5a28.125 28.125 0 0 1-39.825 39.825L540.125 638.72708333z" fill="#1296db" p-id="2387" data-spm-anchor-id="a313x.7781069.0.i10"></path></svg>